<?xml version="1.0" encoding="utf-8"?>
<svg xmlns="http://www.w3.org/2000/svg" viewBox="48.9577 163.7664 424.9594 108.4834" width="424.959px" height="108.483px">
  <path d="M 122.658 164.626 C 125.019 166.439 125.019 166.439 126.165 167.6 C 126.143 169.658 126.047 171.718 125.877 173.769 L 125.644 177.167 C 124.958 180.688 124.019 182.444 121.582 185.019 L 119.291 185.019 L 119.291 187.341 L 121.435 187.179 C 128.96 186.855 134.536 188.087 141.049 191.987 L 143.338 194.309 C 147.354 194.008 150.548 191.69 153.895 189.593 C 158.438 187.167 162.738 187.186 167.816 187.196 L 171.635 187.187 C 175.401 187.341 175.401 187.341 179.167 188.005 C 182.225 188.809 182.225 188.809 184.563 187.341 C 184.897 185.538 185.143 183.721 185.349 181.899 C 186.371 176.008 188.315 173.521 192.971 169.991 C 197.297 167.184 201.289 167.049 206.319 167.6 C 210.578 169.519 213.073 171.7 215.479 175.729 C 215.565 178.723 215.565 178.723 215.122 181.826 L 214.705 184.967 L 214.337 187.341 L 218.13 186.761 C 224.112 185.988 230.069 186.079 236.092 186.18 L 238.383 190.825 C 242.616 189.394 243.175 187.59 245.214 183.744 C 246.936 180.537 248.925 177.561 250.979 174.568 L 253.056 171.447 C 256.974 167.243 260.999 165.497 266.614 165.02 C 270.209 164.976 273.792 165.035 277.388 165.132 C 288.545 165.314 299.564 165.123 310.69 164.222 C 317.796 163.758 317.796 163.758 321.483 165.531 C 324.05 168.774 323.745 171.218 323.575 175.239 C 322.663 180.86 320.205 185.651 316.249 189.664 L 318.554 189.625 C 329.408 189.513 329.408 189.513 333.426 190.825 L 334.572 193.148 C 339.213 191.683 339.213 191.683 343.607 189.607 C 351.464 186.021 361.478 188.856 369.461 190.772 C 372.813 192.178 374.007 193.471 375.794 196.633 L 375.794 198.956 L 378.348 197.262 L 381.734 195.037 L 385.075 192.833 C 391.173 189.147 395.561 188.165 402.704 188.142 L 407.177 188.083 C 411.439 188.52 413.595 189.457 417.019 191.989 L 417.488 187.917 C 419.632 171.766 419.632 171.766 424.463 167.603 C 429.442 164.237 433.99 163.526 439.921 164.119 C 448.187 168.109 448.187 168.109 450.227 172.248 C 450.078 178.717 449.143 184.791 446.793 190.828 L 450.157 189.014 C 455.315 186.837 459.836 186.494 465.114 188.505 C 469.671 192.086 472.692 195.741 473.917 201.497 C 472.954 205.485 471.264 207.565 468.548 210.569 L 467.404 212.892 L 465.114 212.892 L 464.754 214.997 C 463.967 217.535 463.967 217.535 462.103 219.277 C 460.29 220.892 460.29 220.892 460.53 223.196 C 462.143 226.669 464.708 228.806 467.402 231.469 C 469.681 234.622 469.692 236.111 469.692 240.107 C 468.551 244.232 467.488 246.336 464.051 248.874 C 457.634 252.05 450.604 253.212 443.784 251.066 C 441.089 248.906 439.887 247.51 438.777 244.244 L 436.485 244.244 L 436.057 247.075 L 435.34 250.051 C 432.605 251.437 431.014 251.313 427.969 251.243 L 424.859 251.201 C 422.722 251.16 420.584 251.117 418.445 251.066 C 412.076 250.987 406.322 251.532 400.118 253.039 C 390.937 254.821 383.636 251.066 375.796 246.568 L 375.796 250.052 C 368.653 253.104 362.931 255.025 355.258 252.375 L 352.893 251.212 L 351.747 253.535 C 343.258 254.121 333.914 253.302 327.151 247.697 C 321.313 241.214 318.106 235.828 318.306 226.83 C 318.635 223.527 319.618 220.604 320.83 217.535 C 316.052 221.399 315.189 225.381 314.317 231.253 L 313.912 233.668 C 313.281 237.513 312.737 241.371 312.276 245.24 C 311.668 248.889 311.668 248.889 309.592 251.718 C 303.992 254.504 298.332 254.269 292.202 253.535 C 289.487 252.345 289.487 252.345 287.622 251.212 L 286.271 252.736 C 282.31 256.735 279.506 258.701 273.809 258.834 C 267.803 258.435 263.631 256.769 259.065 252.736 C 257.166 248.54 258.184 245.251 258.995 240.76 L 256.706 240.76 L 255.863 243.805 C 252.4 253.182 245.214 261.638 237.237 267.469 L 235.088 269.293 C 229.474 273.13 221.812 272.457 215.339 271.535 C 209.035 270.081 204.867 266.461 200.597 261.665 C 199.048 258.519 199.376 255.847 199.452 252.375 L 195.23 252.012 C 189.199 251.243 185.207 248.81 181.131 244.247 L 178.124 246.932 C 171.946 252.06 166.99 254.119 158.993 253.885 C 153.936 253.306 149.269 251.77 144.487 250.051 L 141.052 248.889 L 138.463 250.548 C 134.529 252.837 132.03 252.687 127.526 252.517 C 122.998 252.402 118.75 252.305 114.285 253.097 C 108.017 253.754 103.487 253.105 98.362 249.241 C 96.111 247.263 93.926 245.209 91.813 243.083 L 91.142 245.287 L 90.239 248.163 L 89.354 251.02 C 88.376 253.535 88.376 253.535 86.086 255.856 C 80.294 258.116 73.667 257.828 67.979 255.493 C 62.653 252.635 62.653 252.635 60.893 250.051 C 60.9 246.494 60.9 246.494 61.539 241.921 L 61.876 239.396 C 62.29 236.363 62.737 233.337 63.188 230.309 L 64.371 222.153 C 64.989 217.903 65.616 213.657 66.253 209.411 L 66.844 205.459 L 67.385 201.915 C 67.841 198.877 67.841 198.877 67.767 195.471 L 66.048 196.051 C 60.737 197.128 55.976 197.77 51.162 194.964 C 48.561 190.456 48.66 186.629 49.446 181.536 C 51.399 174.31 55.413 170.626 61.455 166.589 C 69.63 162.861 79.123 164.022 87.876 164.116 C 90.623 164.146 93.368 164.172 96.111 164.191 L 99.773 164.231 C 120.508 163.557 120.508 163.557 122.658 164.626" style="" transform="matrix(1, 0, 0, 1, 7.105427357601002e-15, -7.105427357601002e-15)"/>
  <path d="M 122.658 164.626 C 125.019 166.439 125.019 166.439 126.165 167.6 C 126.143 169.658 126.047 171.718 125.877 173.769 L 125.644 177.167 C 124.958 180.688 124.019 182.444 121.582 185.019 L 119.291 185.019 L 119.291 187.341 L 121.435 187.179 C 129.068 186.848 134.351 188.313 141.049 191.987 C 141.049 196.632 141.049 196.632 139.905 200.116 L 138.131 199.394 C 128.943 195.94 119.246 193.463 109.987 197.72 L 107.544 199.058 C 105.554 200.116 105.554 200.116 103.261 200.116 L 102.403 201.932 C 100.865 204.977 99.167 207.892 97.425 210.823 C 94.878 215.92 94.964 221.208 94.889 226.827 L 94.789 229.331 C 94.74 233.322 94.89 235.632 97.274 238.875 C 103.181 243.237 108.596 244.21 115.861 244.247 L 119.44 243.013 C 123.531 241.66 125.699 242.416 129.683 243.771 C 132.387 244.354 133.916 244.139 136.474 243.085 C 138.518 239.621 138.518 239.621 139.91 236.117 L 141.711 237.56 C 148.985 243.259 154.429 246.567 163.957 245.407 C 169.283 243.759 173.101 241.702 176.552 237.156 C 178.788 232.861 179.367 228.108 179.989 223.343 L 177.699 223.343 L 177.699 221.02 L 175.408 221.02 L 175.408 218.699 L 173.116 218.699 L 173.116 216.376 L 170.945 215.776 L 168.109 214.923 L 165.292 214.105 C 162.288 212.635 161.675 211.353 160.52 208.244 L 161.666 207.084 C 165.793 207.586 169.831 208.277 173.906 209.116 C 178.394 209.461 178.925 208.663 182.278 205.923 C 184.568 205.846 186.858 205.846 189.147 205.923 C 189.38 213.824 189.123 220.374 186.858 227.987 C 186.212 235.364 186.212 235.364 189.147 241.921 C 193.703 245.441 197.023 245.795 202.675 245.622 L 209.756 245.405 L 209.756 261.663 L 212.047 261.663 L 212.047 265.147 L 208.61 266.308 L 210.902 267.469 L 209.756 269.792 C 208.251 268.489 206.747 267.182 205.249 265.873 L 202.712 263.669 C 200.596 261.663 200.596 261.663 199.45 259.34 C 199.404 257.017 199.404 254.696 199.45 252.373 L 195.229 252.009 C 189.197 251.241 185.203 248.809 181.129 244.244 L 178.122 246.929 C 171.945 252.059 166.989 254.117 158.991 253.882 C 153.934 253.304 149.265 251.767 144.486 250.048 L 141.05 248.887 L 138.461 250.547 C 134.526 252.835 132.027 252.686 127.525 252.514 C 122.997 252.401 118.746 252.304 114.282 253.094 C 108.015 253.751 103.486 253.104 98.36 249.24 C 96.111 247.261 93.926 245.209 91.813 243.083 L 91.142 245.287 L 90.239 248.163 L 89.354 251.02 C 88.376 253.535 88.376 253.535 86.086 255.856 C 80.294 258.116 73.667 257.828 67.979 255.493 C 62.653 252.635 62.653 252.635 60.893 250.051 C 60.9 246.494 60.9 246.494 61.539 241.921 L 61.876 239.396 C 62.29 236.363 62.737 233.337 63.188 230.309 L 64.371 222.153 C 64.989 217.903 65.616 213.657 66.253 209.411 L 66.844 205.459 L 67.385 201.915 C 67.841 198.877 67.841 198.877 67.767 195.471 L 66.048 196.051 C 60.737 197.128 55.976 197.77 51.162 194.964 C 48.561 190.456 48.66 186.629 49.446 181.536 C 51.399 174.31 55.413 170.626 61.455 166.589 C 69.63 162.861 79.123 164.022 87.876 164.116 C 90.623 164.146 93.368 164.172 96.111 164.191 L 99.773 164.231 C 120.508 163.557 120.508 163.557 122.658 164.626" style="" transform="matrix(1, 0, 0, 1, 7.105427357601002e-15, -7.105427357601002e-15)"/>
  <path d="M 196.016 176.891 L 204.031 176.891 C 203.868 178.923 203.702 180.955 203.531 182.988 L 203.248 186.417 C 202.964 189.086 202.456 191.725 201.74 194.309 L 204.456 194.27 C 205.613 194.256 206.773 194.248 207.968 194.237 L 211.469 194.195 C 214.337 194.309 214.337 194.309 215.481 195.471 C 215.375 197.243 215.209 199.009 214.983 200.77 L 214.625 203.678 L 214.337 205.923 L 205.175 205.923 L 205.319 210.278 C 205.341 217.089 204.132 223.637 202.885 230.311 L 213.191 230.311 L 214.192 225.449 C 214.793 222.533 215.431 219.972 216.627 217.246 C 218.209 212.835 218.591 208.469 219.06 203.82 L 219.362 201.043 C 219.6 198.798 219.833 196.554 220.062 194.309 L 228.079 194.309 C 229.938 198.085 228.366 201.929 227.579 205.923 C 226.209 213.244 224.9 220.508 225.787 227.987 C 226.972 229.449 226.972 229.449 229.548 229.261 L 232.728 229.219 L 235.919 229.188 L 238.383 229.148 L 239.529 226.825 L 241.818 226.825 L 241.675 223.776 C 241.818 219.857 241.818 219.857 242.909 216.69 C 244.483 211.697 244.889 206.739 245.293 201.527 C 245.531 199.26 245.531 199.26 246.399 195.471 C 248.556 193.71 248.556 193.71 250.979 193.148 L 254.416 194.309 C 253.38 204.29 252.238 214.25 250.549 224.139 L 249.809 228.58 C 248.583 233.019 246.764 235.88 244.112 239.597 C 243.185 241.352 242.277 243.118 241.392 244.897 C 237.544 251.99 232.226 256.531 224.643 259.34 C 219.596 259.934 215.111 260.373 210.535 257.913 C 208.61 255.856 208.61 255.856 208.413 253.231 L 208.896 250.413 L 209.343 247.57 L 209.756 245.405 L 206.703 245.782 L 202.671 246.203 L 198.686 246.651 C 194.388 246.554 192.586 245.591 189.144 243.08 L 186.854 241.92 C 183.659 232.195 186.714 222.454 189.144 212.888 L 190.504 207.299 L 191.434 203.6 L 184.565 203.6 L 185.709 195.471 L 191.434 194.309 L 192.146 191.09 L 193.083 186.907 L 194.008 182.744 C 194.871 179.213 194.871 179.213 196.016 176.891" fill="#32131B" style="" transform="matrix(1, 0, 0, 1, 7.105427357601002e-15, -7.105427357601002e-15)"/>
  <path d="M 129.455 197.213 L 132.811 198.844 L 135.325 200.116 C 134.88 206.386 134.39 212.639 133.553 218.866 L 133.226 221.335 C 133.007 222.93 132.781 224.523 132.546 226.118 C 131.899 230.887 132.015 234.898 133.034 239.599 C 125.643 239.747 125.643 239.747 121.942 238.872 C 119.306 238.165 119.306 238.165 117.217 239.526 C 112.127 242.033 107.032 241.222 101.83 239.599 C 97.505 236.411 95.664 233.136 94.101 227.987 C 93.003 220.816 94.36 214.672 97.535 208.244 L 98.595 206.063 C 105.119 194.924 118.381 191.736 129.453 197.213" fill="#E1D1BE" style="" transform="matrix(1, 0, 0, 1, 7.105427357601002e-15, -7.105427357601002e-15)"/>
  <path d="M 363.199 196.632 C 365.824 198.437 365.824 198.437 367.778 200.116 C 367.298 205.378 366.518 209.989 364.844 214.995 C 362.94 221.139 362.128 227.395 363.199 233.792 C 364.82 235.895 364.82 235.895 366.634 237.276 L 365.488 240.76 C 360.979 241.184 359.116 241.11 355.326 238.437 L 352.893 236.115 L 352.893 238.437 C 345.589 240.471 339.29 242.086 332.215 238.356 C 329.379 236.214 328.05 234.748 326.555 231.468 C 326.432 223.684 327.126 215.054 331.136 208.243 L 333.426 208.243 L 334.212 205.557 C 336.728 200.333 341.122 198.955 346.238 196.92 C 351.952 195.078 357.402 195.025 363.199 196.628" fill="#E5D2C0" style="" transform="matrix(1, 0, 0, 1, 7.105427357601002e-15, -7.105427357601002e-15)"/>
  <path d="M 458.24 211.728 C 458.24 215.212 458.24 215.212 457.096 217.535 L 454.805 217.535 L 453.661 221.019 L 458.24 222.18 L 458.24 224.503 L 461.677 225.664 C 468.46 231.873 468.46 231.873 469.692 236.115 C 469.692 241.21 469.108 243.552 465.898 247.51 C 460.679 251.367 454.251 252.178 447.935 252.373 C 443.623 251.016 441.873 250.197 439.489 246.349 L 438.773 244.244 L 436.484 244.244 L 436.056 247.075 L 435.34 250.051 C 432.605 251.437 431.014 251.313 427.969 251.243 L 424.859 251.201 C 422.722 251.16 420.584 251.117 418.445 251.066 C 412.076 250.987 406.322 251.532 400.118 253.039 C 390.937 254.821 383.636 251.066 375.796 246.568 L 375.796 244.247 L 367.78 245.407 L 370.069 242.94 C 372.743 239.044 372.563 237.247 372.362 232.633 L 374.652 230.311 L 375.664 232.222 L 377.086 234.738 L 378.452 237.228 C 381.069 240.455 383.4 241.602 387.248 243.085 C 391.581 243.548 391.581 243.548 396.05 243.376 L 400.572 243.321 C 404.415 243.256 404.415 243.256 407.858 241.924 C 409.641 241.91 411.424 241.957 413.203 242.065 L 416.301 242.236 L 419.524 242.434 L 422.788 242.618 C 425.448 242.771 428.108 242.926 430.764 243.087 L 431.908 230.314 L 435.343 229.152 L 437.633 230.314 L 438.563 233.579 C 440.205 238.053 441.633 239.483 445.649 241.925 C 451.042 243.291 454.423 243.359 459.391 240.764 C 458.757 236.618 457.522 235.173 454.238 232.71 C 451.631 230.534 450.335 229.38 448.871 226.249 C 449.326 220.077 453.96 215.768 458.243 211.732" fill="#161118" style="" transform="matrix(1, 0, 0, 1, 7.105427357601002e-15, -7.105427357601002e-15)"/>
  <path d="M 252.339 193.583 L 254.416 194.309 C 253.38 204.29 252.238 214.25 250.549 224.139 L 249.809 228.58 C 248.583 233.019 246.764 235.88 244.112 239.597 C 243.185 241.352 242.277 243.118 241.392 244.897 C 237.544 251.99 232.226 256.531 224.643 259.34 C 214.899 260.485 214.899 260.485 210.551 257.571 L 208.61 255.856 C 209.249 252.101 210.183 250.075 213.191 247.728 L 216.627 247.728 L 216.627 251.212 C 221.102 251.418 224.306 251.483 228.079 248.889 L 230.368 245.405 L 232.658 245.405 L 234.948 239.599 L 232.685 239.548 C 225.363 239.143 221.66 238.127 216.627 232.631 C 215.214 228.338 215.757 225.664 216.372 221.188 L 216.685 218.858 C 217.019 216.409 217.358 213.961 217.701 211.511 L 218.379 206.524 C 218.932 202.451 219.494 198.381 220.062 194.309 L 228.079 194.309 C 229.938 198.085 228.366 201.929 227.579 205.923 C 226.209 213.244 224.9 220.508 225.787 227.987 C 226.972 229.449 226.972 229.449 229.548 229.261 L 232.728 229.219 L 235.919 229.188 L 238.383 229.148 L 239.529 226.825 L 241.818 226.825 L 241.675 223.776 C 241.818 219.857 241.818 219.857 242.906 216.69 C 244.485 211.697 244.927 206.735 245.396 201.527 C 245.644 199.26 245.644 199.26 246.399 195.471 C 249.833 193.148 249.833 193.148 252.339 193.583" fill="#EBD2C3" style="" transform="matrix(1, 0, 0, 1, 7.105427357601002e-15, -7.105427357601002e-15)"/>
  <path d="M 113.569 171.084 C 112.716 174.969 111.641 177.373 108.988 180.375 C 104.844 181.776 101.057 181.66 96.749 181.61 L 92.267 181.569 L 88.376 181.536 L 87.992 184.538 C 86.509 196.039 84.923 207.524 83.23 218.996 C 82.935 221 82.649 223.006 82.37 225.011 C 81.959 227.949 81.531 230.885 81.086 233.818 L 80.724 236.54 C 79.769 242.632 79.769 242.632 77.092 244.825 C 74.634 245.405 74.634 245.405 70.055 245.405 C 69.8 237.973 70.769 231.272 72.203 223.996 C 74.025 214.408 75.45 204.748 76.474 195.04 C 76.917 190.906 77.47 186.81 78.071 182.697 C 67.539 183.249 67.539 183.249 57.459 186.18 C 57.776 181.569 58.338 179.534 61.323 175.946 C 65.464 172.449 68.539 172.085 73.759 171.877 L 77.376 171.73 L 81.219 171.593 L 85.113 171.441 C 94.601 171.096 104.071 170.941 113.569 171.084" fill="#E5CDBA" style="" transform="matrix(1, 0, 0, 1, 7.105427357601002e-15, -7.105427357601002e-15)"/>
  <path d="M 311.668 173.407 C 310.218 177.942 309.019 180.444 304.799 182.697 C 298.04 184.091 292.116 183.684 285.333 182.697 L 284.855 187.29 C 284.252 192.637 283.517 197.971 282.652 203.283 L 282.212 206.07 L 281.291 211.849 C 280.825 214.777 280.363 217.708 279.904 220.638 L 279.003 226.291 L 278.595 228.914 C 277.749 234.101 276.557 239.223 275.026 244.247 L 267.01 244.247 C 267.45 234.335 268.639 224.473 270.562 214.747 C 271.855 208.15 272.968 201.52 274.097 194.893 L 274.716 191.252 L 276.17 182.699 C 268.421 183.797 261.444 184.941 254.416 188.505 C 253.765 184.029 254.373 182.756 257.062 178.998 C 262.229 173.514 262.229 173.514 266.69 173.164 L 270.442 173.223 L 274.603 173.264 L 278.962 173.339 C 288.304 173.474 297.442 173.426 306.738 172.393 C 309.378 172.245 309.378 172.245 311.668 173.407" fill="#E2D1C2" style="" transform="matrix(1, 0, 0, 1, 7.105427357601002e-15, -7.105427357601002e-15)"/>
  <path d="M 437.629 173.407 C 436.941 182.697 435.341 191.713 433.55 200.843 L 432.737 205.048 C 432.082 208.436 431.425 211.826 430.757 215.212 C 437.444 213.601 437.444 213.601 442.568 209.261 L 445.644 205.923 L 447.935 205.923 L 450.225 200.116 L 452.515 200.116 L 453.661 196.632 L 460.53 196.632 C 459.898 205.619 453.969 210.407 447.935 216.373 L 444.714 219.639 L 442.209 222.18 C 443.99 227.598 447.881 230.549 452.301 233.938 L 454.805 236.115 L 454.805 239.599 C 446.56 240.309 446.56 240.309 442.639 237.276 L 439.919 233.792 L 438.044 231.419 C 433.05 224.935 433.05 224.935 433.05 222.18 L 429.613 222.18 L 429.152 225.695 L 428.543 230.237 L 427.936 234.771 C 427.323 238.437 427.323 238.437 426.178 239.599 C 424.27 239.648 422.362 239.648 420.453 239.599 C 418.79 233.964 419.817 229.134 420.81 223.487 C 421.144 221.5 421.473 219.513 421.799 217.527 L 422.295 214.55 C 422.92 210.619 423.407 206.681 423.89 202.729 C 426.741 180.398 426.741 180.398 429.615 174.568 C 433.052 173.407 433.052 173.407 437.631 173.407" fill="#E4C9B8" style="" transform="matrix(1, 0, 0, 1, 7.105427357601002e-15, -7.105427357601002e-15)"/>
  <path d="M 174.258 195.617 C 177.267 198.478 177.173 200.708 177.692 204.761 L 174.017 204.423 L 169.247 204.035 L 166.823 203.809 C 164.725 203.644 162.62 203.614 160.517 203.6 C 157.825 205.804 157.825 205.804 158.082 209.551 L 158.227 212.889 L 168.533 215.212 L 168.533 217.535 L 170.823 217.535 L 170.823 219.857 L 173.113 219.857 C 175.464 223.861 176.622 226.031 176.19 230.744 L 175.402 233.792 L 173.113 233.792 L 173.113 236.115 C 163.481 240.517 156.647 242.253 146.543 238.38 C 144.224 237.137 142.722 235.837 141.05 233.792 C 141.122 231.469 141.122 231.469 142.196 229.148 C 145.121 226.38 146.135 225.664 150.213 225.664 C 151.884 228.738 152.502 230.187 152.502 233.792 L 163.952 232.631 C 164.937 229.969 164.937 229.969 165.098 226.825 C 161.966 222.35 156.933 219.695 152.417 216.8 C 150.213 215.212 150.213 215.212 149.065 212.889 C 148.455 208.908 148.3 205.243 149.065 201.277 C 155.22 193.849 165.603 192.325 174.258 195.617" fill="#E8DFCF" style="" transform="matrix(1, 0, 0, 1, 7.105427357601002e-15, -7.105427357601002e-15)"/>
  <path d="M 196.016 176.891 L 204.031 176.891 C 203.868 178.923 203.702 180.955 203.531 182.988 L 203.248 186.417 C 202.885 189.664 202.885 189.664 201.74 194.309 L 212.047 195.471 L 209.756 202.439 L 202.709 203.118 L 200.596 203.6 C 198.904 207.031 198.732 210.474 198.234 214.269 L 197.621 218.816 C 197.188 223.076 197.076 227.192 197.16 231.468 L 207.465 232.629 C 207.038 235.46 207.038 235.46 206.321 238.436 C 202.574 240.336 198.904 240.361 194.871 239.597 C 191.523 237.813 188.872 235.895 186.854 232.629 C 186.332 226.517 187.329 220.812 188.5 214.847 L 188.966 212.331 C 190.125 206.25 190.125 206.25 191.434 203.596 L 184.565 203.596 L 185.709 195.467 L 191.434 194.305 L 192.146 191.086 L 193.083 186.903 L 194.008 182.74 C 194.871 179.213 194.871 179.213 196.016 176.891" fill="#E4CFC0" style="" transform="matrix(1, 0, 0, 1, 7.105427357601002e-15, -7.105427357601002e-15)"/>
  <path d="M 125.019 195.471 C 130.804 196.205 135.666 197.95 141.05 200.116 C 140.449 211.173 138.624 221.803 136.471 232.631 L 141.05 231.469 L 142.842 234.227 C 147.096 238.872 151.379 239.382 157.443 239.963 C 162.956 239.487 167.891 237.906 173.114 236.115 L 173.114 233.792 L 175.404 233.792 C 175.649 228.604 174.937 224.707 173.114 219.857 L 170.825 219.857 L 170.825 217.535 L 168.535 217.535 L 168.535 215.212 L 165.1 214.051 C 170.54 215.066 170.54 215.066 173.114 216.373 L 173.114 218.696 L 175.404 218.696 L 175.404 221.019 L 177.695 221.019 L 177.695 223.341 L 179.987 223.341 C 180.453 231.231 178.896 235.609 173.902 241.632 C 168.732 246.02 163.61 247.06 157.02 246.858 C 150.466 246.002 145.815 241.533 141.05 237.276 L 139.045 240.688 C 136.471 244.244 136.471 244.244 134.368 245.125 C 131.386 245.463 129.205 244.937 126.309 244.172 C 121.637 243.114 121.637 243.114 117.003 244.244 C 110.757 246.355 104.477 244.229 98.682 241.414 C 96.392 239.599 96.392 239.599 94.103 236.115 C 94.007 233.406 94.007 230.695 94.103 227.987 C 96.392 231.469 96.392 231.469 97.896 234.448 C 100.266 237.922 101.527 238.6 105.554 239.599 C 111.398 240.197 111.398 240.197 116.837 238.356 C 120.332 236.818 122.754 237.56 126.449 238.292 L 130.188 239.007 L 133.034 239.599 L 131.837 236.668 C 130.592 232.065 130.888 228.398 131.602 223.776 L 131.941 221.335 C 132.289 218.905 132.654 216.477 133.034 214.051 L 133.705 209.742 C 134.224 206.528 134.762 203.319 135.325 200.116 L 125.019 196.632 L 125.019 195.471 Z" fill="#D23039" style="" transform="matrix(1, 0, 0, 1, 7.105427357601002e-15, -7.105427357601002e-15)"/>
  <path d="M 414.726 200.116 L 414.726 204.761 L 412.436 204.761 L 412.436 207.084 L 408.631 206.625 L 403.634 206.14 L 401.132 205.825 C 396.405 205.409 394.531 205.578 390.801 208.667 L 388.39 211.728 L 386.099 214.051 C 384.885 219.504 384.551 224.902 386.099 230.309 C 390.728 231.873 394.999 231.99 399.84 231.469 C 403.068 229.857 403.068 229.857 405.567 227.987 L 409.002 227.987 L 410.146 236.115 C 403.432 240.857 396.402 241.087 388.39 240.76 C 383.809 239.325 379.903 236.472 376.94 232.631 C 374.512 225.25 375.411 216.653 378.084 209.405 C 386.47 195.197 400.784 193.83 414.726 200.116" fill="#E6D9C7" style="" transform="matrix(1, 0, 0, 1, 7.105427357601002e-15, -7.105427357601002e-15)"/>
  <path d="M 276.17 182.697 C 275.513 194.468 273.61 205.943 271.591 217.535 L 270.447 217.535 C 270.235 199.251 270.235 199.251 271.591 190.825 L 257.85 191.987 L 258.577 195.656 C 259.463 202.894 257.846 209.79 256.492 216.88 L 255.764 221.02 C 253.001 235.891 247.302 249.016 236.021 259.412 C 229.414 263.834 222.126 264.978 214.337 263.985 C 211.789 262.996 211.789 262.996 209.756 261.663 C 208.896 258.614 208.896 258.614 208.61 255.856 L 210.566 256.986 C 216.002 259.457 221.991 259.193 227.52 257.081 C 237.924 251.535 243.587 241.613 247.55 230.59 C 248.715 226.742 249.484 222.992 250.165 219.03 L 250.926 214.65 L 251.696 210.128 L 252.491 205.523 C 253.137 201.784 253.777 198.044 254.416 194.305 L 250.979 194.305 L 250.979 191.983 L 253.269 191.983 L 253.269 185.015 L 255.56 187.337 L 258.422 185.67 C 264.34 182.991 269.68 182.692 276.17 182.692" fill="#E43740" style="" transform="matrix(1, 0, 0, 1, 7.105427357601002e-15, -7.105427357601002e-15)"/>
  <path d="M 304.799 195.471 L 306.804 196.56 C 309.284 197.748 311.237 198.61 313.961 198.955 L 316.037 197.867 C 319.566 196.129 322.692 196.482 326.559 196.632 C 325.699 202.148 325.699 202.148 323.122 204.761 L 319.472 205.777 C 312.571 207.538 312.571 207.538 307.09 211.728 C 304.917 217.419 303.691 223.172 302.511 229.148 L 301.77 232.832 C 301.383 234.791 301.018 236.753 300.674 238.721 C 300.22 240.76 300.22 240.76 299.074 241.921 C 296.783 241.97 294.493 241.97 292.202 241.921 C 291.972 234.01 292.772 226.812 294.277 219.059 L 294.853 215.854 C 295.935 210.151 297.081 205.078 300.22 200.116 L 303.653 198.955 L 304.799 195.471 Z" fill="#E6D4BC" style="" transform="matrix(1, 0, 0, 1, 7.105427357601002e-15, -7.105427357601002e-15)"/>
  <path d="M 310.524 172.245 L 315.105 173.407 C 314.835 178.088 314.449 180.875 311.634 184.656 C 307.217 188.144 304.157 188.24 298.714 188.286 L 296.146 188.375 C 294.068 188.441 291.991 188.476 289.912 188.503 C 288.788 195.236 287.665 201.97 286.55 208.703 C 286.172 210.989 285.79 213.277 285.406 215.561 C 284.856 218.865 284.307 222.168 283.762 225.472 L 283.25 228.522 C 282.135 235.294 281.347 242.052 280.751 248.887 C 270.324 249.197 270.324 249.197 265.864 246.564 L 267.01 241.92 L 267.01 244.241 L 275.026 244.241 L 275.485 240.883 C 276.241 235.514 277.119 230.164 277.998 224.812 L 278.523 221.599 L 279.619 214.915 C 280.179 211.507 280.738 208.097 281.293 204.686 L 282.36 198.175 L 282.865 195.093 L 283.339 192.214 L 283.75 189.694 C 284.19 187.332 284.731 185.019 285.333 182.695 L 288.598 182.817 L 292.917 182.913 L 297.188 183.034 C 301.72 182.665 304.403 181.656 308.233 179.211 C 309.992 175.9 309.992 175.9 310.524 172.243" fill="#D72D36" style="" transform="matrix(1, 0, 0, 1, 7.105427357601002e-15, -7.105427357601002e-15)"/>
  <path d="M 122.515 204.035 L 125.257 204.425 L 127.309 204.761 C 126.516 209.055 125.495 213.253 124.387 217.472 C 123.74 220.161 123.74 220.161 123.659 224.214 C 122.73 227.988 122.73 227.988 119.15 230.818 C 114.937 232.86 111.365 233.282 106.698 232.631 C 103.256 227.392 103.481 222.504 104.407 216.373 C 106.623 211.273 109.094 207.092 114.033 204.447 C 117.207 203.54 119.275 203.544 122.514 204.035" fill="#230D14" style="" transform="matrix(1, 0, 0, 1, 7.105427357601002e-15, -7.105427357601002e-15)"/>
  <path d="M 352.035 205.705 L 355.775 205.8 L 358.619 205.923 C 357.945 209.531 357.251 213.135 356.542 216.737 L 355.968 219.838 L 355.376 222.819 L 354.848 225.565 C 353.903 228.385 352.886 229.625 350.603 231.469 C 346.489 232.861 343.472 233.015 339.151 232.631 C 336.361 230.89 336.361 230.89 334.572 227.987 C 333.544 221.046 334.842 217.247 338.596 211.451 C 342.749 206.454 345.585 205.492 352.035 205.702" fill="#18111A" style="" transform="matrix(1, 0, 0, 1, 7.105427357601002e-15, -7.105427357601002e-15)"/>
  <path d="M 453.661 196.632 L 460.53 196.632 C 459.898 205.619 453.969 210.407 447.935 216.373 L 444.714 219.639 L 442.209 222.18 C 443.99 227.598 447.881 230.549 452.301 233.938 L 454.805 236.115 L 454.805 239.599 C 446.593 240.305 446.593 240.305 442.711 237.422 C 439.551 233.314 436.631 229.087 433.79 224.743 C 431.928 221.916 431.928 221.916 428.467 219.857 L 430.601 219.045 C 436.292 216.718 439.539 215.278 442.209 209.405 C 444 207.301 444 207.301 445.644 205.923 L 447.935 205.923 L 450.225 200.116 L 452.515 200.116 L 453.661 196.632 Z" fill="#EBD4BF" style="" transform="matrix(1, 0, 0, 1, 7.105427357601002e-15, -7.105427357601002e-15)"/>
  <path d="M 367.778 201.277 L 372.359 202.439 C 371.655 212.659 369.73 222.599 367.778 232.631 L 373.505 234.953 C 372.952 241.264 372.952 241.264 370.52 243.963 C 366.576 246.037 363.995 245.167 359.691 244.318 C 353.649 242.836 353.649 242.836 348.311 245.405 C 343.015 246.286 338.925 245.844 334.072 243.518 C 330.765 240.41 329.835 238.203 328.847 233.792 L 331.852 236.769 C 338.12 241.455 345.628 239.471 352.893 238.437 L 352.893 236.115 C 357.33 238.292 357.33 238.292 358.619 239.599 C 360.909 239.648 363.199 239.648 365.488 239.599 C 364.091 236.475 364.091 236.475 362.053 233.792 C 360.441 222.404 364.334 211.927 367.778 201.277" fill="#D62F41" style="" transform="matrix(1, 0, 0, 1, 7.105427357601002e-15, -7.105427357601002e-15)"/>
  <path d="M 113.569 172.245 L 117.003 172.245 C 116.945 175.719 116.854 178.273 115.859 181.536 C 109.702 187.344 103.135 186.584 95.036 186.344 L 91.813 186.18 L 91.263 190.291 C 89.588 202.552 87.754 214.79 85.757 227.003 L 84.99 231.73 C 84.627 233.96 84.262 236.187 83.894 238.414 L 83.25 242.332 C 82.651 245.405 82.651 245.405 81.507 247.728 L 70.055 247.728 L 68.909 243.083 L 70.055 245.405 L 78.071 243.083 L 82.759 213.011 L 83.67 207.174 C 84.343 202.863 85.006 198.549 85.636 194.232 L 86.239 190.117 L 86.746 186.582 C 87.23 183.857 87.23 183.857 88.376 181.536 C 91.183 181.206 94 180.988 96.822 180.883 C 102.991 180.638 102.991 180.638 108.988 179.213 L 111.278 175.657 L 113.569 172.245 Z" fill="#E8393E" style="" transform="matrix(1, 0, 0, 1, 7.105427357601002e-15, -7.105427357601002e-15)"/>
  <path d="M 208.61 194.309 C 210.52 194.26 212.429 194.26 214.337 194.309 L 215.481 195.471 C 215.375 197.243 215.209 199.009 214.983 200.77 L 214.625 203.678 L 214.337 205.923 L 205.175 207.084 L 200.596 231.469 L 212.047 231.469 C 213.191 232.631 213.191 232.631 213.479 235.969 C 213.191 239.599 213.191 239.599 211.69 241.705 C 207.013 245.041 201.498 244.947 196.018 244.244 C 191.663 241.915 189.582 240.264 186.856 236.115 L 188.002 232.631 L 190.865 235.534 C 193.859 238.094 195.819 238.86 199.739 238.872 C 203.814 238.721 203.814 238.721 206.324 237.276 C 207.073 234.925 207.073 234.925 207.472 232.631 L 205.256 232.672 C 204.308 232.684 203.363 232.692 202.389 232.703 L 199.529 232.745 C 197.16 232.631 197.16 232.631 196.016 231.469 C 196.177 226.423 196.705 221.4 197.16 216.373 L 197.415 213.17 C 197.809 208.765 198.135 206.182 200.596 202.439 C 202.824 202.098 202.824 202.098 205.319 202.221 L 209.756 202.439 C 210.535 199.655 210.535 199.655 210.902 196.632 L 208.61 194.309 Z" fill="#E9443E" style="" transform="matrix(1, 0, 0, 1, 7.105427357601002e-15, -7.105427357601002e-15)"/>
  <path d="M 340.295 207.084 C 339.572 213.538 339.572 213.538 337.361 216.228 C 334.717 220.193 335.274 223.258 335.716 227.987 C 337.29 230.168 337.29 230.168 339.151 231.469 L 339.151 233.792 L 341.535 233.71 L 344.662 233.648 L 347.762 233.564 C 350.603 233.792 350.603 233.792 354.037 236.115 C 352.893 238.437 352.893 238.437 350.808 239.213 C 344.097 240.748 338.588 241.714 332.215 238.356 C 329.379 236.214 328.05 234.748 326.555 231.468 C 326.435 223.846 326.992 214.813 331.136 208.243 C 334.52 205.838 336.432 205.682 340.295 207.081" fill="#E8D7C3" style="" transform="matrix(1, 0, 0, 1, 7.105427357601002e-15, -7.105427357601002e-15)"/>
  <path d="M 460.53 196.632 L 465.112 198.955 C 465.561 202.837 465.155 204.677 463.323 208.173 C 460.574 211.674 457.801 214.243 454.332 216.965 C 452.188 219.007 451.176 220.516 450.225 223.343 C 450.405 227.112 450.963 228.698 453.484 231.495 L 456.02 233.577 L 458.565 235.706 L 460.53 237.276 C 460.11 239.503 460.11 239.503 459.386 241.921 C 456.031 244.025 453.741 244.244 449.797 244.244 C 444.469 242.753 441.488 240.002 437.629 236.115 L 438.773 231.469 L 440.349 234.227 C 444.608 238.548 448.978 238.844 454.805 239.599 C 452.83 235.199 450.583 233.263 446.79 230.309 C 444.858 228.398 442.949 226.461 441.065 224.503 C 442.603 220.903 444.171 218.909 447.218 216.519 C 450.972 213.384 453.443 210.188 455.95 205.923 L 457.884 202.801 C 459.524 200.071 459.524 200.071 460.53 196.632" fill="#E1303C" style="" transform="matrix(1, 0, 0, 1, 7.105427357601002e-15, -7.105427357601002e-15)"/>
  <path d="M 161.661 219.857 L 165.098 221.019 C 166.185 223.418 166.185 223.418 167.03 226.318 L 167.901 229.226 L 168.533 231.469 L 169.533 226.971 C 170.297 223.545 170.597 222.41 173.113 219.857 C 175.464 223.861 176.622 226.031 176.19 230.744 L 175.402 233.792 L 173.113 233.792 L 173.113 236.115 C 163.481 240.517 156.647 242.253 146.543 238.38 C 144.224 237.137 142.722 235.837 141.05 233.792 C 141.122 231.469 141.122 231.469 142.196 229.148 C 145.121 226.38 146.135 225.664 150.213 225.664 C 151.884 228.738 152.502 230.187 152.502 233.792 L 163.952 232.631 C 164.949 230.019 164.949 230.019 165.098 226.825 C 163.002 223.561 163.002 223.561 160.517 221.019 L 161.661 219.857 Z" fill="#E9D1C3" style="" transform="matrix(1, 0, 0, 1, 7.105427357601002e-15, -7.105427357601002e-15)"/>
  <path d="M 326.555 197.793 L 329.991 200.116 C 329.624 203.544 329.42 205.388 326.862 207.763 C 323.253 210.043 319.614 210.684 315.49 211.569 C 311.471 213.549 310.918 215.613 309.377 219.855 C 308.356 224.23 307.597 228.63 306.871 233.064 L 306.256 236.661 C 305.76 239.574 305.275 242.49 304.799 245.405 C 303.155 245.435 301.506 245.46 299.86 245.479 L 297.082 245.52 C 294.493 245.405 294.493 245.405 291.058 244.244 L 291.058 237.276 L 292.202 241.921 L 299.074 240.76 L 299.543 238.507 C 300.264 235.118 300.989 231.734 301.72 228.349 L 302.46 224.804 C 305.395 211.342 305.395 211.342 311.956 206.866 C 314.922 205.262 317.28 204.486 320.614 203.6 C 324.375 202.825 324.375 202.825 325.913 199.97 L 326.555 197.793 Z" fill="#EA2B31" style="" transform="matrix(1, 0, 0, 1, 7.105427357601002e-15, -7.105427357601002e-15)"/>
  <path d="M 217.771 205.923 C 217.209 214.627 216.19 222.95 214.337 231.469 L 202.885 230.309 C 202.563 221.988 203.798 214.115 205.175 205.923 C 213.907 204.616 213.907 204.616 217.771 205.923" fill="#100E16" style="" transform="matrix(1, 0, 0, 1, 7.105427357601002e-15, -7.105427357601002e-15)"/>
  <path d="M 220.062 194.309 L 228.079 194.309 C 229.938 198.085 228.366 201.929 227.579 205.923 C 224.787 218.291 224.787 218.291 226.933 230.309 L 221.206 230.309 L 220.062 227.987 L 216.627 232.631 C 215.214 228.338 215.757 225.664 216.372 221.188 L 216.685 218.858 C 217.019 216.409 217.358 213.961 217.701 211.511 L 218.379 206.524 C 218.932 202.451 219.494 198.381 220.062 194.309" fill="#E8CAB8" style="" transform="matrix(1, 0, 0, 1, 7.105427357601002e-15, -7.105427357601002e-15)"/>
  <path d="M 128.455 201.277 L 134.18 201.277 L 133.95 204.044 C 133.618 208.202 133.287 212.362 132.962 216.519 L 132.601 220.876 L 132.277 225.094 L 131.967 228.964 C 131.885 232.673 132.313 235.972 133.032 239.601 C 125.302 239.747 125.302 239.747 122.728 238.44 L 122.728 236.117 L 117.001 234.956 C 120.436 232.633 120.436 232.633 122.728 232.633 L 123.154 228.642 C 124.062 221.414 125.442 214.528 128.093 207.74 L 129.6 203.6 L 128.455 201.277 Z" fill="#E4D6C7" style="" transform="matrix(1, 0, 0, 1, 7.105427357601002e-15, -7.105427357601002e-15)"/>
  <path d="M 414.726 200.116 L 419.309 203.6 C 419.094 205.705 419.094 205.705 418.163 208.244 C 414.851 210.863 413.104 211.75 408.862 211.611 L 405.065 211.002 C 398.785 210.248 398.785 210.248 393.185 212.673 C 389.743 217.757 389.851 221.984 390.682 227.987 L 391.826 230.309 C 394.487 230.784 397.157 231.171 399.84 231.469 L 399.84 232.631 C 390.663 233.348 390.663 233.348 386.673 230.818 C 383.725 225.96 383.4 221.747 384.597 216.228 C 386.897 211.115 389.507 207.875 394.115 204.761 C 396.715 204.746 396.715 204.746 399.626 205.124 L 402.68 205.504 C 405.946 205.975 409.198 206.478 412.436 207.081 L 412.436 204.759 L 414.726 204.759 L 414.726 200.116 Z" fill="#E32E38" style="" transform="matrix(1, 0, 0, 1, 7.105427357601002e-15, -7.105427357601002e-15)"/>
  <path d="M 382.663 217.535 L 384.955 217.535 L 386.099 230.309 C 390.728 231.873 394.999 231.99 399.84 231.469 C 403.068 229.857 403.068 229.857 405.567 227.987 L 409.002 227.987 L 410.146 236.115 C 403.435 240.855 396.398 241.095 388.39 240.76 C 384.917 239.652 383.247 238.488 380.374 236.115 L 379.23 233.792 L 384.955 231.469 L 383.809 229.729 C 382.165 225.558 382.516 222.011 382.663 217.535" fill="#E9CCB9" style="" transform="matrix(1, 0, 0, 1, 7.105427357601002e-15, -7.105427357601002e-15)"/>
  <path d="M 352.035 205.705 L 358.619 205.923 L 354.037 227.987 L 352.893 227.987 C 352.617 221.445 353.596 215.74 355.182 209.405 C 348.853 211.282 348.853 211.282 343.804 215.286 C 342.047 220.208 341.732 225.108 341.441 230.309 L 347.167 231.469 L 347.167 232.631 C 340.042 233.187 340.042 233.187 336.361 230.89 C 333.842 226.802 333.611 223.303 334.572 218.696 C 338.341 210.219 342.496 205.388 352.035 205.705" fill="#BA2A35" style="" transform="matrix(1, 0, 0, 1, 7.105427357601002e-15, -7.105427357601002e-15)"/>
  <path d="M 375.794 214.051 L 376.94 214.051 L 376.819 217.149 L 376.724 221.235 L 376.604 225.277 C 377.115 231.171 379.208 233.953 383.595 237.711 C 389.935 241.125 397.611 239.597 404.421 238.437 C 407.644 237.314 407.644 237.314 410.146 236.115 L 409.002 229.148 L 415.871 232.631 C 415.469 235.644 415.111 237.887 413.368 240.397 C 405.908 245.874 395.968 245.014 387.246 244.244 C 382.537 242.871 379.848 240.243 376.44 236.695 C 373.335 229.65 373.65 221.433 375.794 214.051" fill="#E52831" style="" transform="matrix(1, 0, 0, 1, 7.105427357601002e-15, -7.105427357601002e-15)"/>
  <path d="M 228.079 194.309 L 233.802 194.309 C 234.054 201.855 233.304 208.806 232.014 216.243 C 231.514 219.849 231.307 223.189 231.512 226.825 C 233.086 229.006 233.086 229.006 234.948 230.309 C 231.084 230.454 231.084 230.454 226.933 230.309 C 224.643 227.987 224.643 227.987 224.284 223.415 C 224.439 213.634 226.441 203.927 228.079 194.309" fill="#E5363D" style="" transform="matrix(1, 0, 0, 1, 7.105427357601002e-15, -7.105427357601002e-15)"/>
  <path d="M 276.17 182.697 C 275.513 194.468 273.61 205.943 271.591 217.535 L 270.447 217.535 C 270.235 199.251 270.235 199.251 271.591 190.825 C 269.325 190.959 267.058 191.105 264.794 191.26 L 260.97 191.506 L 257.85 191.987 L 256.706 194.309 L 250.979 194.309 L 250.979 191.987 L 253.269 191.987 L 253.269 185.019 L 255.56 187.341 L 258.422 185.674 C 264.34 182.995 269.68 182.697 276.17 182.697" fill="#4D171D" style="" transform="matrix(1, 0, 0, 1, 7.105427357601002e-15, -7.105427357601002e-15)"/>
  <path d="M 437.629 173.407 L 442.209 174.568 C 441.525 183.84 440.267 192.918 438.703 202.075 L 438.056 205.928 C 437.535 209.024 437.013 212.119 436.484 215.212 L 430.757 215.212 C 431.449 205.923 433.047 196.906 434.84 187.776 L 435.65 183.571 C 436.307 180.183 436.968 176.794 437.629 173.404" fill="#E82F37" style="" transform="matrix(1, 0, 0, 1, 7.105427357601002e-15, -7.105427357601002e-15)"/>
  <path d="M 173.113 195.471 C 177.428 195.975 179.574 198.271 182.739 201.108 C 185.464 203.093 188.149 203.362 191.434 203.6 L 190.29 212.889 L 189.144 212.889 L 189.144 205.923 L 184.708 206.938 L 182.211 207.509 C 179.747 208.135 179.747 208.135 177.692 210.567 C 174.043 210.204 174.043 210.204 169.677 209.405 L 165.17 208.754 L 161.661 208.244 L 163.952 214.051 L 158.227 212.889 C 156.715 206.619 156.715 206.619 158.227 203.746 C 163.11 200.96 168.425 202.304 173.614 203.6 L 177.692 204.761 C 176.238 199.635 176.238 199.635 173.113 195.471" fill="#D6343B" style="" transform="matrix(1, 0, 0, 1, 7.105427357601002e-15, -7.105427357601002e-15)"/>
  <path d="M 122.515 204.035 L 125.257 204.425 L 127.309 204.761 L 126.165 210.567 L 125.019 208.244 C 118.852 209.594 115.032 210.888 111.278 216.373 C 110.221 220.656 109.534 224.756 110.134 229.148 C 112.304 231.315 112.304 231.315 114.713 232.631 C 110.85 232.849 110.85 232.849 106.698 232.631 C 103.256 227.392 103.481 222.504 104.407 216.373 C 106.623 211.273 109.094 207.092 114.033 204.447 C 117.207 203.54 119.275 203.544 122.514 204.035" fill="#F1192B" style="" transform="matrix(1, 0, 0, 1, 7.105427357601002e-15, -7.105427357601002e-15)"/>
  <path d="M 422.742 200.116 L 423.888 200.116 C 424.321 209.04 423.157 217.36 421.674 226.126 L 421.204 228.922 L 420.768 231.423 C 420.35 234.161 420.35 234.161 420.453 238.437 L 426.178 238.437 L 429.613 222.18 L 433.05 222.18 C 437.629 227.223 437.629 227.223 437.629 230.309 L 433.05 230.309 L 430.757 243.083 L 418.163 243.083 C 417.158 237.979 417.009 235.799 417.867 230.941 L 418.488 227.313 L 419.166 223.558 C 419.595 221.11 420.021 218.658 420.446 216.204 L 421.055 212.692 C 421.749 208.509 422.275 204.328 422.746 200.113" fill="#CB3C44" style="" transform="matrix(1, 0, 0, 1, 7.105427357601002e-15, -7.105427357601002e-15)"/>
  <path d="M 418.163 205.923 L 419.309 205.923 L 419.309 211.728 L 416.873 212.092 C 413.135 212.997 410.092 214.539 406.711 216.373 L 407.857 223.341 C 400.811 224.361 400.811 224.361 398.695 224.503 C 397.551 223.341 397.551 223.341 397.263 220.584 C 397.551 217.535 397.551 217.535 399.268 215.432 L 400.986 214.051 C 397.934 213.8 395.901 213.692 393.185 215.212 C 391.029 218.892 391.327 222.706 391.826 226.825 C 392.815 229.618 392.815 229.618 394.115 231.469 L 390.682 230.309 C 388.515 225.919 388.668 221.131 389.536 216.373 C 391.68 213.082 394.074 211.147 397.551 209.405 C 401.786 208.878 404.983 209.288 409.146 210.132 C 412.905 210.628 414.815 209.942 418.163 208.244 L 418.163 205.923 Z" fill="#290B14" style="" transform="matrix(1, 0, 0, 1, 7.105427357601002e-15, -7.105427357601002e-15)"/>
  <path d="M 328.847 233.792 L 331.852 236.769 C 338.12 241.455 345.628 239.471 352.893 238.437 L 352.893 236.115 C 357.33 238.292 357.33 238.292 358.619 239.599 C 360.548 239.683 362.483 239.696 364.416 239.672 L 367.607 239.641 L 370.068 239.599 L 370.068 244.244 C 364.829 246.102 360.207 244.522 354.927 243.403 C 351.505 242.713 351.505 242.713 348.311 245.405 C 343.015 246.286 338.925 245.844 334.072 243.518 C 330.765 240.41 329.835 238.203 328.847 233.792" fill="#D41D2D" style="" transform="matrix(1, 0, 0, 1, 7.105427357601002e-15, -7.105427357601002e-15)"/>
  <path d="M 386.938 244.785 C 390.805 245.426 394.424 245.559 398.338 245.551 L 402.216 245.559 C 405.641 245.555 405.641 245.555 409.002 244.244 L 410.146 250.051 C 404.56 253.828 398.431 253.75 391.826 253.535 C 387.411 252.405 383.35 250.84 379.23 248.889 L 379.23 245.405 C 382.138 244.383 383.862 244.252 386.938 244.785" fill="#101219" style="" transform="matrix(1, 0, 0, 1, 7.105427357601002e-15, -7.105427357601002e-15)"/>
  <path d="M 304.799 195.471 L 306.804 196.56 C 309.284 197.748 311.237 198.61 313.961 198.955 L 316.037 197.867 C 319.566 196.129 322.692 196.482 326.559 196.632 L 326.559 200.116 C 323.218 200.506 319.878 200.893 316.537 201.277 L 313.673 201.615 L 310.901 201.932 L 308.356 202.227 C 306.036 202.432 303.694 202.44 301.365 202.44 C 298.322 214.336 296.262 226.284 294.495 238.44 L 299.076 241.924 L 292.205 241.924 C 291.974 234.012 292.774 226.815 294.279 219.061 L 294.854 215.857 C 295.938 210.154 297.082 205.08 300.221 200.117 L 303.655 198.956 L 304.799 195.471 Z" fill="#D8A991" style="" transform="matrix(1, 0, 0, 1, 7.105427357601002e-15, -7.105427357601002e-15)"/>
  <path d="M 174.258 195.617 C 176.548 197.793 176.548 197.793 177.692 204.761 L 159.371 203.6 L 158.227 200.116 L 156.222 200.625 L 149.065 202.439 C 156.212 194.571 164.098 191.752 174.258 195.617" fill="#DED5C1" style="" transform="matrix(1, 0, 0, 1, 7.105427357601002e-15, -7.105427357601002e-15)"/>
  <path d="M 310.524 172.245 L 315.105 173.407 C 314.831 178.1 314.449 180.876 311.615 184.664 C 307.419 187.986 304.117 188.163 299.002 188.14 C 291.837 188.086 291.837 188.086 285.333 190.825 L 285.333 182.697 L 288.598 182.819 L 292.917 182.914 L 297.188 183.037 C 301.72 182.667 304.403 181.657 308.233 179.213 C 309.992 175.903 309.992 175.903 310.524 172.245" fill="#E72935" style="" transform="matrix(1, 0, 0, 1, 7.105427357601002e-15, -7.105427357601002e-15)"/>
  <path d="M 75.782 193.148 C 77.19 198.044 76.659 202.448 76.068 207.447 L 75.753 210.246 C 74.862 217.685 73.501 224.948 71.963 232.279 C 71.019 237.04 70.476 241.736 70.057 246.568 L 81.509 247.729 L 84.942 224.504 L 86.088 224.504 C 86.622 233.552 85.122 241.375 82.653 250.052 C 76.888 251.222 73.218 251.185 67.767 248.891 C 67.419 240.249 68.728 232.564 70.559 224.142 C 72.427 215.482 73.859 207.088 74.379 198.228 C 74.634 195.471 74.634 195.471 75.782 193.148" fill="#5A1D1C" style="" transform="matrix(1, 0, 0, 1, 7.105427357601002e-15, -7.105427357601002e-15)"/>
  <path d="M 94.103 227.987 C 96.392 231.469 96.392 231.469 97.896 234.448 C 100.266 237.922 101.527 238.6 105.554 239.599 C 110.757 240.094 114.638 239.719 119.292 237.276 C 121.942 237.568 121.942 237.568 125.019 238.437 L 129.385 239.672 L 133.034 240.76 L 131.89 244.244 C 125.485 244.391 125.485 244.391 122.73 243.518 C 120.267 242.832 120.267 242.832 117.433 244.316 C 110.867 246.166 104.732 244.354 98.682 241.413 C 96.392 239.597 96.392 239.597 94.103 236.113 C 94.007 233.404 94.007 230.692 94.103 227.984" fill="#DD232E" style="" transform="matrix(1, 0, 0, 1, 7.105427357601002e-15, -7.105427357601002e-15)"/>
  <path d="M 284.189 187.341 L 285.333 190.825 L 288.768 189.664 C 288.167 200.721 286.341 211.351 284.189 222.18 L 281.895 222.18 L 281.895 229.148 L 279.606 229.148 C 280.054 214.919 281.387 201.297 284.189 187.341" fill="#E83039" style="" transform="matrix(1, 0, 0, 1, 7.105427357601002e-15, -7.105427357601002e-15)"/>
  <path d="M 123.875 212.889 L 125.019 212.889 C 125.144 215.477 125.232 218.066 125.307 220.656 L 125.466 225.023 C 124.954 229.768 123.671 231.58 120.442 234.953 L 122.731 237.276 C 116.59 240.391 112.413 241.125 105.556 240.76 L 107.702 239.817 C 110.478 238.488 110.478 238.488 112.425 234.953 L 105.556 233.792 L 105.556 231.469 L 103.265 231.469 C 101.533 227.965 101.92 224.883 102.119 221.019 L 104.41 217.535 L 104.619 219.953 L 104.911 223.123 L 105.193 226.268 C 105.479 229.295 105.479 229.295 106.7 232.631 C 114.765 231.899 114.765 231.899 121.587 227.987 C 122.885 222.997 123.457 218.024 123.877 212.889" fill="#EFC0B3" style="" transform="matrix(1, 0, 0, 1, 7.105427357601002e-15, -7.105427357601002e-15)"/>
  <path d="M 449.081 218.696 L 451.371 218.696 L 450.439 222.326 C 449.775 226.96 449.775 226.96 452.731 230.6 C 455.245 233.098 457.61 235.304 460.53 237.279 C 460.317 239.456 460.317 239.456 459.386 241.924 C 456.031 244.026 453.741 244.247 449.797 244.247 C 444.469 242.756 441.488 240.005 437.629 236.117 L 438.773 231.472 L 440.349 234.23 C 444.608 238.549 448.978 238.845 454.805 239.601 C 453.583 236.605 452.791 235.146 450.105 233.296 C 447.935 231.469 447.935 231.469 447.447 228.63 L 447.576 225.518 L 447.663 222.389 C 447.935 219.857 447.935 219.857 449.081 218.696" fill="#E62C38" style="" transform="matrix(1, 0, 0, 1, 7.105427357601002e-15, -7.105427357601002e-15)"/>
  <path d="M 238.383 251.212 L 239.529 253.535 C 237.357 258.304 235.021 260.578 230.368 262.824 C 224.671 264.589 217.406 265.17 211.782 263.001 C 209.756 261.663 209.756 261.663 208.898 258.614 L 208.61 255.856 L 210.575 256.986 C 216.308 259.6 222.323 259.013 228.149 256.919 C 233.634 254.655 233.634 254.655 238.38 251.212" fill="#EC2430" style="" transform="matrix(1, 0, 0, 1, 7.105427357601002e-15, -7.105427357601002e-15)"/>
  <path d="M 373.505 230.309 L 375.51 232.922 C 380.228 238.771 383.593 242.64 391.202 243.564 L 395.547 243.809 L 399.929 244.072 L 403.277 244.244 C 400.986 246.567 400.986 246.567 398.91 246.835 C 392.302 246.704 385.791 246.184 379.23 245.407 L 378.084 247.729 L 375.794 246.568 L 375.794 244.247 L 367.778 245.407 L 370.068 242.94 C 372.734 239.055 372.662 237.247 372.359 232.633 L 373.505 230.309 Z" fill="#310A14" style="" transform="matrix(1, 0, 0, 1, 7.105427357601002e-15, -7.105427357601002e-15)"/>
  <path d="M 135.325 212.889 L 136.471 212.889 C 136.584 219.877 136.202 226.861 135.325 233.792 L 138.761 234.953 C 139.179 241.315 139.179 241.315 137.257 244.098 C 135.325 245.405 135.325 245.405 131.89 245.405 L 131.89 241.921 L 128.455 239.599 L 133.034 239.599 L 131.82 236.984 C 130.284 230.761 131.142 225.011 131.89 218.693 L 134.18 218.693 L 135.325 212.889 Z" fill="#E02C37" style="" transform="matrix(1, 0, 0, 1, 7.105427357601002e-15, -7.105427357601002e-15)"/>
  <path d="M 147.921 203.6 L 149.065 203.6 L 149.123 205.855 C 149.641 211.096 150.149 214.18 154.234 217.672 C 156.472 219.055 158.746 220.377 161.055 221.633 C 163.952 223.341 163.952 223.341 166.244 226.825 C 165.625 232.098 165.625 232.098 163.952 233.792 C 162.022 233.871 160.087 233.896 158.157 233.867 L 154.968 233.834 L 152.502 233.792 L 150.213 225.664 L 143.34 227.987 L 142.196 224.503 C 146.762 222.957 149.2 223.993 153.648 225.664 L 154.792 229.148 L 157.082 229.148 L 157.082 232.631 L 163.952 231.469 C 163.211 228.183 162.312 226.162 159.633 224.107 C 158.063 223.132 156.475 222.184 154.872 221.261 L 152.502 219.857 L 149.935 218.357 C 147.921 216.373 147.921 216.373 147.474 213.24 L 147.635 209.771 L 147.762 206.273 L 147.921 203.6 Z" fill="#8A232A" style="" transform="matrix(1, 0, 0, 1, 7.105427357601002e-15, -7.105427357601002e-15)"/>
  <path d="M 150.213 225.664 C 151.884 228.738 152.502 230.187 152.502 233.792 L 163.952 233.792 L 163.952 234.953 L 153.648 234.953 L 153.648 237.276 L 150.213 237.276 L 149.065 239.599 C 146.056 237.832 143.52 236.297 141.05 233.792 C 141.259 230.511 141.96 229.372 144.342 227.114 C 146.775 225.664 146.775 225.664 150.213 225.664" fill="#E7C8B3" style="" transform="matrix(1, 0, 0, 1, 7.105427357601002e-15, -7.105427357601002e-15)"/>
  <path d="M 367.778 201.277 L 370.068 201.277 C 370.965 205.101 371.443 207.563 370.177 211.33 C 368.653 216.05 368.139 220.596 367.638 225.518 L 367.338 228.276 C 367.1 230.502 366.865 232.726 366.636 234.953 C 364.944 233.694 364.944 233.694 363.2 231.469 C 361.99 222.089 362.998 213.42 366.636 204.761 L 367.778 201.277 Z" fill="#EC3243" style="" transform="matrix(1, 0, 0, 1, 7.105427357601002e-15, -7.105427357601002e-15)"/>
  <path d="M 149.065 239.599 C 152.644 239.532 156.224 239.49 159.801 239.453 L 162.887 239.394 L 165.84 239.371 L 168.564 239.333 C 170.823 239.599 170.823 239.599 173.113 241.921 C 166.924 245.824 162.106 247.187 154.792 246.567 C 151.357 245.405 151.357 245.405 149.065 244.244 L 149.065 239.599 Z" fill="#D42130" style="" transform="matrix(1, 0, 0, 1, 7.105427357601002e-15, -7.105427357601002e-15)"/>
  <path d="M 325.41 200.116 C 324.495 202.367 324.495 202.367 323.12 204.761 C 320.467 205.6 317.796 206.374 315.105 207.084 C 313.65 207.862 312.216 208.686 310.81 209.551 C 307.089 211.728 307.089 211.728 303.653 211.728 C 304.083 209.48 304.083 209.48 304.799 207.084 L 307.089 205.923 L 304.799 204.761 L 304.799 202.439 C 311.838 200.548 318.128 199.882 325.41 200.116" fill="#EEDECC" style="" transform="matrix(1, 0, 0, 1, 7.105427357601002e-15, -7.105427357601002e-15)"/>
  <path d="M 357.474 208.244 L 358.619 208.244 L 358.326 211.475 C 357.47 220.689 357.47 220.689 358.116 229.873 C 358.619 233.803 358.546 235.257 356.324 238.437 L 354.179 236.769 C 349.272 234.28 344.571 234.103 339.149 233.792 L 339.149 232.631 L 341.573 232.205 L 344.731 231.615 L 347.871 231.044 C 350.788 230.506 350.788 230.506 352.891 227.987 C 353.572 225.103 354.172 222.196 354.68 219.277 C 356.198 210.824 356.198 210.824 357.47 208.244" fill="#E0C5AF" style="" transform="matrix(1, 0, 0, 1, 7.105427357601002e-15, -7.105427357601002e-15)"/>
  <path d="M 414.726 200.116 L 419.309 203.6 C 418.952 207.066 418.355 208.085 415.659 210.35 C 411.607 212.084 409.824 211.563 405.567 210.567 C 403.711 210.328 401.847 210.111 399.984 209.915 L 397.273 209.619 L 395.261 209.405 L 396.405 204.761 C 401.777 205.417 407.108 206.138 412.436 207.084 L 412.436 204.761 L 414.726 204.761 L 414.726 200.116 Z" fill="#DD212C" style="" transform="matrix(1, 0, 0, 1, 7.105427357601002e-15, -7.105427357601002e-15)"/>
  <path d="M 127.309 204.761 L 126.165 210.567 L 125.019 208.244 C 119.572 209.692 119.572 209.692 114.427 211.946 C 112.423 212.889 112.423 212.889 108.988 211.728 L 107.844 215.212 L 106.698 212.889 C 110.387 206.517 110.387 206.517 113.783 204.254 C 118.421 203.312 122.673 204.004 127.309 204.761" fill="#D41F2C" style="" transform="matrix(1, 0, 0, 1, 7.105427357601002e-15, -7.105427357601002e-15)"/>
  <path d="M 276.17 182.697 C 276.04 184.922 275.896 187.149 275.742 189.375 L 275.501 193.132 C 275.026 196.632 275.026 196.632 272.737 201.277 L 273.881 188.503 C 267.597 188.406 261.751 188.595 255.56 189.664 L 255.56 187.341 C 262.467 183.315 268.262 182.697 276.17 182.697" fill="#C6363B" style="" transform="matrix(1, 0, 0, 1, 7.105427357601002e-15, -7.105427357601002e-15)"/>
  <path d="M 138.761 239.599 L 139.906 243.083 C 137.856 245.768 136.841 246.512 133.476 247.017 L 129.903 247.029 L 125.975 247.044 L 121.87 247.004 L 117.816 247.044 C 110.618 247.018 104.96 246.813 98.68 243.083 L 97.535 240.76 L 100.254 241.849 C 106.635 243.745 113.025 245.221 119.435 243.01 C 123.526 241.657 125.694 242.413 129.679 243.768 C 132.385 244.352 133.907 244.124 136.471 243.083 L 138.761 239.599 Z" fill="#3B0811" style="" transform="matrix(1, 0, 0, 1, 7.105427357601002e-15, -7.105427357601002e-15)"/>
  <path d="M 186.854 232.631 L 190.004 235.534 C 195.711 239.77 201.844 238.944 208.614 238.437 L 208.614 233.792 L 212.049 233.792 L 212.049 238.437 C 207.381 243.002 202.348 243.564 195.982 243.493 C 192.04 242.779 190.317 240.407 188.002 237.276 C 187.281 234.753 187.281 234.753 186.856 232.631" fill="#E91A2C" style="" transform="matrix(1, 0, 0, 1, 7.105427357601002e-15, -7.105427357601002e-15)"/>
  <path d="M 465.112 207.084 C 467.402 210.567 467.402 210.567 467.402 212.889 L 465.112 212.889 L 464.753 214.995 C 463.848 217.916 462.722 218.973 460.53 221.019 L 458.24 224.503 L 452.515 222.18 L 454.805 217.535 L 457.096 217.535 L 457.884 214.92 C 459.665 211.132 461.773 209.489 465.112 207.081" fill="#1F191F" style="" transform="matrix(1, 0, 0, 1, 7.105427357601002e-15, -7.105427357601002e-15)"/>
  <path d="M 215.481 230.309 L 216.793 231.791 C 222.706 237.76 227.926 238.406 236.092 238.437 L 232.658 245.405 C 225.085 243.46 220.401 241.221 215.481 234.953 L 215.481 230.309 Z" fill="#D42732" style="" transform="matrix(1, 0, 0, 1, 7.105427357601002e-15, -7.105427357601002e-15)"/>
  <path d="M 247.543 232.631 C 249.376 238.268 247.559 242.475 245.254 247.728 C 243.498 250.621 241.606 253.179 239.529 255.856 L 238.383 252.373 L 233.802 254.696 L 235.104 252.776 C 238.784 247.308 242.178 241.649 245.278 235.824 C 246.399 233.792 246.399 233.792 247.543 232.631" fill="#E24148" style="" transform="matrix(1, 0, 0, 1, 7.105427357601002e-15, -7.105427357601002e-15)"/>
  <path d="M 258.995 195.471 L 260.141 195.471 C 259.752 205.551 258.338 215.362 256.706 225.3 L 256.087 229.087 C 254.565 238.129 254.565 238.129 253.269 240.76 L 249.833 239.599 L 250.674 236.432 C 254.18 222.907 256.659 209.246 258.995 195.471" fill="#530C17" style="" transform="matrix(1, 0, 0, 1, 7.105427357601002e-15, -7.105427357601002e-15)"/>
  <path d="M 442.209 178.052 L 443.354 178.052 C 443.784 185.497 442.472 191.906 440.669 199.124 C 439.792 202.439 439.792 202.439 439.919 205.923 L 444.498 208.244 C 442.64 210.227 440.731 212.163 438.773 214.051 L 436.484 214.051 C 437.636 201.794 439.092 189.982 442.209 178.052" fill="#3B0715" style="" transform="matrix(1, 0, 0, 1, 7.105427357601002e-15, -7.105427357601002e-15)"/>
  <path d="M 208.61 194.309 C 210.52 194.26 212.429 194.26 214.337 194.309 L 215.481 195.471 C 215.375 197.243 215.209 199.009 214.983 200.77 L 214.625 203.678 L 214.337 205.923 C 212.695 206.18 211.046 206.423 209.398 206.648 L 206.62 207.058 C 204.031 207.084 204.031 207.084 200.596 204.761 L 200.596 202.439 L 209.756 202.439 C 210.535 199.655 210.535 199.655 210.902 196.632 L 208.61 194.309 Z" fill="#D12631" style="" transform="matrix(1, 0, 0, 1, 7.105427357601002e-15, -7.105427357601002e-15)"/>
  <path d="M 248.689 240.76 L 250.979 243.083 C 243.192 257.482 243.192 257.482 237.237 260.501 L 237.237 263.985 L 217.771 265.147 L 217.771 263.985 L 220.746 263.469 C 231.199 261.389 236.843 259.121 242.933 250.24 C 244.922 247.116 246.838 243.967 248.689 240.759" fill="#421219" style="" transform="matrix(1, 0, 0, 1, 7.105427357601002e-15, -7.105427357601002e-15)"/>
  <path d="M 375.794 214.051 L 376.94 214.051 L 376.819 217.149 L 376.724 221.235 L 376.604 225.277 C 376.974 229.545 377.819 231.583 380.374 234.953 C 382.198 236.502 382.198 236.502 384.239 237.494 L 386.345 238.613 C 388.885 239.837 391.476 240.941 394.115 241.921 L 394.115 243.083 C 383.968 243.606 383.968 243.606 379.23 239.599 C 374.077 234.091 374.205 229.164 374.376 221.954 C 374.609 219.172 375.02 216.722 375.794 214.051" fill="#BA333A" style="" transform="matrix(1, 0, 0, 1, 7.105427357601002e-15, -7.105427357601002e-15)"/>
  <path d="M 340.295 207.084 C 340.081 210.35 340.081 210.35 339.151 214.051 C 336.217 216.228 336.217 216.228 333.426 217.535 L 333.426 215.212 L 328.847 216.373 C 329.847 210.857 329.847 210.857 331.136 208.244 C 334.577 205.955 336.426 205.682 340.295 207.084" fill="#EDDED2" style="" transform="matrix(1, 0, 0, 1, 7.105427357601002e-15, -7.105427357601002e-15)"/>
  <path d="M 304.799 195.471 L 306.804 196.56 C 309.284 197.748 311.237 198.61 313.961 198.955 L 316.037 197.867 C 319.566 196.129 322.692 196.482 326.559 196.632 L 326.559 200.116 C 323.218 200.536 319.878 200.948 316.537 201.351 L 313.673 201.716 L 310.901 202.046 L 308.356 202.36 C 305.804 202.447 303.801 202.023 301.365 201.279 L 301.365 198.956 L 303.655 198.956 L 304.799 195.471 Z" fill="#CF907D" style="" transform="matrix(1, 0, 0, 1, 7.105427357601002e-15, -7.105427357601002e-15)"/>
  <path d="M 437.629 173.407 L 442.209 174.568 C 442.048 176.576 441.882 178.584 441.71 180.592 L 441.426 183.979 C 441.087 187.059 440.584 190.121 439.919 193.147 L 436.484 194.307 C 436.271 179.592 436.271 179.592 437.629 173.404" fill="#CA1324" style="" transform="matrix(1, 0, 0, 1, 7.105427357601002e-15, -7.105427357601002e-15)"/>
  <path d="M 328.847 233.792 L 332.066 236.695 C 337.509 240.729 342.984 240.133 349.457 239.599 L 348.311 241.921 L 340.295 241.921 L 340.295 244.244 L 349.457 243.083 L 348.311 245.405 C 342.927 245.843 339.031 245.897 334.072 243.518 C 330.765 240.41 329.835 238.203 328.847 233.792" fill="#D62F3A" style="" transform="matrix(1, 0, 0, 1, 7.105427357601002e-15, -7.105427357601002e-15)"/>
  <path d="M 82.651 230.309 L 83.797 230.309 C 83.634 232.777 83.466 235.244 83.296 237.711 L 83.014 241.875 C 82.651 245.405 82.651 245.405 81.507 247.728 L 70.055 247.728 L 68.909 243.083 L 70.055 245.405 C 74.343 244.945 74.343 244.945 78.071 243.083 C 79.46 240.099 80.207 237.256 80.925 234.042 C 81.507 231.469 81.507 231.469 82.651 230.309" fill="#E5202A" style="" transform="matrix(1, 0, 0, 1, 7.105427357601002e-15, -7.105427357601002e-15)"/>
  <path d="M 318.541 217.535 L 320.83 217.535 C 320.508 220.028 320.174 222.519 319.828 225.011 L 319.263 229.215 L 318.541 232.631 L 316.249 233.792 C 315.496 237.313 315.496 237.313 315.105 240.76 C 312.815 238.437 312.815 238.437 312.72 235.664 C 313.975 222.165 313.975 222.165 318.541 217.537" fill="#D3C7B7" style="" transform="matrix(1, 0, 0, 1, 7.105427357601002e-15, -7.105427357601002e-15)"/>
  <path d="M 355.182 209.405 L 354.037 214.051 L 354.037 211.728 C 349.219 214.661 346.029 216.908 343.732 222.18 C 342.907 226.47 342.907 226.47 342.588 230.309 L 350.603 230.309 L 350.603 231.469 C 343.557 231.584 343.557 231.584 341.441 231.469 L 340.295 230.309 C 340.343 223.96 340.699 217.881 344.878 212.889 C 348.784 209.942 350.19 209.405 355.182 209.405" fill="#420F18" style="" transform="matrix(1, 0, 0, 1, 7.105427357601002e-15, -7.105427357601002e-15)"/>
  <path d="M 173.113 195.471 C 177.428 195.975 179.574 198.271 182.739 201.108 C 185.464 203.093 188.149 203.362 191.434 203.6 L 190.29 212.889 L 189.144 212.889 L 189.144 205.923 L 178.838 208.244 L 176.38 200.306 C 175.521 197.601 175.521 197.601 173.113 195.471" fill="#CF3441" style="" transform="matrix(1, 0, 0, 1, 7.105427357601002e-15, -7.105427357601002e-15)"/>
  <path d="M 460.53 196.632 L 465.112 198.955 C 465.58 202.987 465.116 204.755 463.179 208.39 C 460.578 211.671 458.487 213.346 454.805 215.212 C 454.805 210.567 454.805 210.567 457.026 207.882 C 459.884 204.104 460.168 201.313 460.53 196.632" fill="#CD1B28" style="" transform="matrix(1, 0, 0, 1, 7.105427357601002e-15, -7.105427357601002e-15)"/>
  <path d="M 78.071 181.536 L 79.215 186.18 C 71.915 187.298 64.833 187.467 57.459 187.341 C 62.342 183.544 65.162 182.511 71.345 182.045 L 75.146 181.749 L 78.071 181.536 Z" fill="#DE242F" style="" transform="matrix(1, 0, 0, 1, 7.105427357601002e-15, -7.105427357601002e-15)"/>
  <path d="M 310.524 172.245 L 315.105 173.407 C 314.811 178.483 314.417 180.976 311.17 184.948 C 308.233 187.341 308.233 187.341 305.943 187.341 L 304.799 185.019 L 301.364 182.697 L 304.653 181.318 C 308.404 179.545 308.404 179.545 309.808 176.164 C 310.572 173.694 310.572 173.694 310.524 172.245" fill="#D72B36" style="" transform="matrix(1, 0, 0, 1, 7.105427357601002e-15, -7.105427357601002e-15)"/>
  <path d="M 429.613 222.18 L 433.05 222.18 C 437.629 227.223 437.629 227.223 437.629 230.309 L 433.05 230.309 L 431.904 236.115 L 427.323 237.276 L 429.613 222.18 Z" fill="#E72A39" style="" transform="matrix(1, 0, 0, 1, 7.105427357601002e-15, -7.105427357601002e-15)"/>
  <path d="M 204.031 176.891 L 207.465 178.052 C 207.494 179.891 207.52 181.73 207.54 183.568 L 207.578 186.672 C 207.49 189.263 207.069 191.833 206.321 194.312 L 201.74 194.312 C 201.904 192.278 202.072 190.247 202.241 188.214 L 202.522 184.784 C 202.829 182.042 203.291 179.541 204.031 176.892" fill="#DB2F31" style="" transform="matrix(1, 0, 0, 1, 7.105427357601002e-15, -7.105427357601002e-15)"/>
  <path d="M 135.325 212.889 L 136.471 212.889 C 136.701 220.276 136.045 226.654 134.18 233.792 L 130.744 232.631 L 131.89 218.696 L 134.18 218.696 L 135.325 212.889 Z" fill="#EB323B" style="" transform="matrix(1, 0, 0, 1, 7.105427357601002e-15, -7.105427357601002e-15)"/>
  <path d="M 208.61 255.856 L 210.489 256.938 C 213.587 258.361 216.428 258.92 219.774 259.486 L 223.193 260.075 L 225.787 260.501 L 224.643 263.985 C 223.021 264.047 221.4 264.096 219.774 264.131 L 217.036 264.213 C 214.037 263.962 212.26 263.342 209.753 261.665 C 208.895 258.616 208.895 258.616 208.609 255.859" fill="#D71F2C" style="" transform="matrix(1, 0, 0, 1, 7.105427357601002e-15, -7.105427357601002e-15)"/>
  <path d="M 276.17 236.115 C 277.242 239.61 277.367 240.606 276.17 244.244 L 278.462 244.244 L 278.462 248.889 C 269.956 249.221 269.956 249.221 265.864 246.567 L 267.01 241.921 L 267.01 244.244 L 275.026 244.244 L 276.17 236.115 Z" fill="#E84947" style="" transform="matrix(1, 0, 0, 1, 7.105427357601002e-15, -7.105427357601002e-15)"/>
  <path d="M 88.376 182.697 C 90.763 182.603 93.149 182.533 95.534 182.479 L 99.561 182.357 C 103.261 182.697 103.261 182.697 107.844 186.18 L 91.813 186.18 L 91.813 188.503 L 88.376 188.503 L 88.376 182.697 Z" fill="#E8232F" style="" transform="matrix(1, 0, 0, 1, 7.105427357601002e-15, -7.105427357601002e-15)"/>
  <path d="M 65.762 174.86 L 67.767 175.731 C 66.733 180.019 66.157 182.182 62.614 184.876 C 59.749 186.18 59.749 186.18 57.459 186.18 C 57.824 182.111 58.25 179.696 60.681 176.384 C 63.186 174.568 63.186 174.568 65.762 174.86" fill="#D9D5C8" style="" transform="matrix(1, 0, 0, 1, 7.105427357601002e-15, -7.105427357601002e-15)"/>
  <path d="M 185.709 227.987 L 186.854 227.987 L 187.068 231.687 C 188.159 236.884 189.75 238.579 193.723 241.921 C 196.754 243.456 199.082 243.195 202.456 243.156 L 205.937 243.125 L 208.61 243.083 L 208.61 245.405 C 206.442 245.693 204.273 245.959 202.099 246.203 L 198.434 246.651 C 194.294 246.552 192.478 245.479 189.144 243.08 L 186.854 241.92 C 185.755 238.572 185.589 236.464 185.638 232.992 L 185.671 230.146 L 185.709 227.987 Z" fill="#320915" style="" transform="matrix(1, 0, 0, 1, 7.105427357601002e-15, -7.105427357601002e-15)"/>
  <path d="M 125.019 195.471 C 130.571 196.156 134.875 197.77 139.906 200.116 L 138.761 211.728 L 136.471 209.405 L 134.18 211.728 L 135.325 200.116 L 125.019 196.632 L 125.019 195.471 Z" fill="#D04047" style="" transform="matrix(1, 0, 0, 1, 7.105427357601002e-15, -7.105427357601002e-15)"/>
  <path d="M 201.74 231.469 C 203.435 231.438 205.129 231.415 206.824 231.399 L 209.681 231.356 C 212.047 231.469 212.047 231.469 213.191 232.631 C 213.724 238.852 213.724 238.852 211.688 241.705 C 208.175 244.21 205.101 244.378 200.954 244.318 L 198.148 244.286 L 196.016 244.244 L 196.016 243.083 L 198.361 242.656 L 201.455 242.067 L 204.516 241.495 C 207.319 240.796 209.535 239.855 212.049 238.437 L 212.049 233.792 L 208.614 233.792 L 208.614 238.437 L 206.322 237.276 L 207.466 232.631 L 201.743 232.631 L 201.74 231.469 Z" fill="#DD3447" style="" transform="matrix(1, 0, 0, 1, 7.105427357601002e-15, -7.105427357601002e-15)"/>
  <path d="M 437.629 231.469 L 439.02 232.872 C 444.238 237.805 449.071 240.118 455.95 241.921 L 453.661 244.244 C 447.203 244.244 443.812 242.137 439.102 238.052 C 437.629 236.115 437.629 236.115 437.629 231.469" fill="#CD111E" style="" transform="matrix(1, 0, 0, 1, 7.105427357601002e-15, -7.105427357601002e-15)"/>
  <path d="M 165.098 214.051 C 170.539 215.066 170.539 215.066 173.113 216.373 L 173.113 218.696 L 175.402 218.696 L 175.402 221.019 L 177.692 221.019 L 177.692 223.341 L 179.985 223.341 C 179.124 230.019 179.124 230.019 176.548 232.631 L 173.113 219.857 L 170.823 219.857 L 170.823 217.535 L 168.533 217.535 L 168.533 215.212 L 165.098 214.051 Z" fill="#BE2836" style="" transform="matrix(1, 0, 0, 1, 7.105427357601002e-15, -7.105427357601002e-15)"/>
  <path d="M 123.875 212.889 L 125.019 212.889 C 125.143 215.501 125.232 218.115 125.307 220.73 L 125.466 225.138 C 125.019 229.148 125.019 229.148 123.017 231.979 C 118.943 234.848 116.131 234.122 111.278 233.795 C 113.805 231.707 115.612 230.379 118.794 229.513 C 121.966 228.208 121.966 228.208 122.646 224.458 L 123.089 220.295 L 123.576 216.112 L 123.875 212.889 Z" fill="#D7A093" style="" transform="matrix(1, 0, 0, 1, 7.105427357601002e-15, -7.105427357601002e-15)"/>
  <path d="M 231.512 211.728 L 232.658 211.728 L 232.658 223.341 L 240.674 225.664 L 241.818 223.341 L 241.818 226.825 L 239.529 226.825 L 238.383 230.309 C 232.942 229.437 232.942 229.437 230.368 226.825 C 230.396 223.295 230.396 223.295 230.796 219.131 L 231.182 214.949 L 231.512 211.728 Z" fill="#4D1820" style="" transform="matrix(1, 0, 0, 1, 7.105427357601002e-15, -7.105427357601002e-15)"/>
  <path d="M 84.94 214.051 L 86.086 214.051 C 86.204 220.003 86.129 225.607 84.94 231.469 L 82.651 231.469 L 80.361 239.599 C 79.06 235.357 79.633 232.541 80.808 228.258 C 81.784 224.634 82.51 220.964 83.266 217.285 C 83.797 215.212 83.797 215.212 84.94 214.051" fill="#EB3135" style="" transform="matrix(1, 0, 0, 1, 7.105427357601002e-15, -7.105427357601002e-15)"/>
  <path d="M 366.634 215.212 L 367.778 215.212 L 366.634 234.953 C 363.199 231.469 363.199 231.469 362.741 228.753 L 362.769 225.735 L 362.741 222.727 C 363.276 219.346 364.375 217.716 366.634 215.211" fill="#F62335" style="" transform="matrix(1, 0, 0, 1, 7.105427357601002e-15, -7.105427357601002e-15)"/>
  <path d="M 209.756 245.405 L 220.062 246.567 L 220.062 248.889 L 228.079 248.889 C 226.217 250.705 226.217 250.705 223.496 252.373 C 219.774 252.009 219.774 252.009 216.627 251.212 L 216.627 247.728 L 213.907 249.398 C 212.174 250.445 210.415 251.459 208.61 252.373 L 209.756 245.405 Z" fill="#602A2A" style="" transform="matrix(1, 0, 0, 1, 7.105427357601002e-15, -7.105427357601002e-15)"/>
  <path d="M 256.706 240.76 L 258.995 240.76 L 257.85 253.535 L 253.269 254.696 L 249.833 252.373 C 250.924 250.432 252.02 248.497 253.126 246.567 L 254.978 243.301 L 256.706 240.76 Z" fill="#C6BFB5" style="" transform="matrix(1, 0, 0, 1, 7.105427357601002e-15, -7.105427357601002e-15)"/>
  <path d="M 397.551 217.535 C 403.993 217.243 403.993 217.243 407.857 219.857 L 407.857 223.341 C 400.811 224.361 400.811 224.361 398.695 224.503 C 397.551 223.341 397.551 223.341 397.48 220.366 L 397.551 217.535 Z" fill="#D5D2C5" style="" transform="matrix(1, 0, 0, 1, 7.105427357601002e-15, -7.105427357601002e-15)"/>
  <path d="M 433.05 229.148 C 435.412 229.657 435.412 229.657 437.629 230.309 L 436.484 234.953 L 435.34 233.792 L 431.904 244.244 L 420.453 244.244 L 420.453 243.083 L 430.757 243.083 L 430.968 240.329 L 431.26 236.768 L 431.541 233.217 C 431.904 230.309 431.904 230.309 433.05 229.148" fill="#47070F" style="" transform="matrix(1, 0, 0, 1, 7.105427357601002e-15, -7.105427357601002e-15)"/>
  <path d="M 249.833 255.856 L 250.979 259.34 L 248.763 260.865 C 246.093 262.723 246.093 262.723 245.254 266.308 C 243.509 267.664 243.509 267.664 241.39 268.847 L 239.287 270.058 C 237.237 270.953 237.237 270.953 233.802 270.953 C 238.892 265.627 244.339 260.749 249.833 255.856" fill="#D4D2CC" style="" transform="matrix(1, 0, 0, 1, 7.105427357601002e-15, -7.105427357601002e-15)"/>
  <path d="M 409.002 229.148 L 415.871 232.631 C 415.469 236.396 415.229 237.99 412.366 240.543 L 410.146 241.921 L 409.002 238.437 L 406.711 237.276 L 410.146 236.115 L 409.002 229.148 Z" fill="#E12C37" style="" transform="matrix(1, 0, 0, 1, 7.105427357601002e-15, -7.105427357601002e-15)"/>
  <path d="M 311.668 173.407 C 310.236 177.649 309.755 178.957 305.943 181.536 L 305.943 176.891 L 295.637 174.568 L 295.637 173.407 C 297.88 173.181 300.124 172.964 302.364 172.754 L 306.15 172.387 C 309.378 172.245 309.378 172.245 311.668 173.407" fill="#D6BEAD" style="" transform="matrix(1, 0, 0, 1, 7.105427357601002e-15, -7.105427357601002e-15)"/>
  <path d="M 127.454 239.526 L 130.612 240.213 L 133.034 240.76 L 131.89 244.244 C 127.282 244.364 122.675 243.974 118.149 243.083 L 119.292 239.599 C 122.409 238.018 124.086 238.782 127.454 239.526" fill="#E01A25" style="" transform="matrix(1, 0, 0, 1, 7.105427357601002e-15, -7.105427357601002e-15)"/>
  <path d="M 326.555 197.793 L 329.991 200.116 C 329.633 202.874 329.633 202.874 328.847 205.923 L 325.41 208.244 L 324.264 205.923 L 321.974 207.084 C 319.685 207.132 317.395 207.132 315.105 207.084 L 316.249 204.761 L 320.186 203.746 C 324.331 202.889 324.331 202.889 325.913 199.97 L 326.555 197.793 Z" fill="#D63442" style="" transform="matrix(1, 0, 0, 1, 7.105427357601002e-15, -7.105427357601002e-15)"/>
  <path d="M 204.031 194.309 L 212.047 195.471 L 209.756 202.439 L 200.596 202.439 L 201.74 200.116 L 205.175 200.116 L 204.031 194.309 Z" fill="#EDBCB0" style="" transform="matrix(1, 0, 0, 1, 7.105427357601002e-15, -7.105427357601002e-15)"/>
  <path d="M 214.337 234.953 C 219.256 237.171 223.143 240.402 226.933 244.244 L 218.917 245.405 L 217.771 239.599 L 215.053 241.414 L 212.047 243.083 L 209.756 241.921 L 214.337 234.953 Z" fill="#2F0D17" style="" transform="matrix(1, 0, 0, 1, 7.105427357601002e-15, -7.105427357601002e-15)"/>
  <path d="M 128.455 223.341 L 130.744 223.341 L 133.034 239.599 L 127.309 239.599 L 128.455 223.341 Z" fill="#ECDBD6" style="" transform="matrix(1, 0, 0, 1, 7.105427357601002e-15, -7.105427357601002e-15)"/>
  <path d="M 409.002 227.987 L 410.146 236.115 L 409.002 232.631 L 407.156 233.207 C 403.803 233.926 400.691 233.902 397.263 233.867 L 393.524 233.834 L 390.682 233.792 L 390.682 232.631 L 394.901 232.268 C 400.217 231.619 403.836 227.987 409.002 227.987" fill="#DBB4A0" style="" transform="matrix(1, 0, 0, 1, 7.105427357601002e-15, -7.105427357601002e-15)"/>
  <path d="M 56.314 186.18 L 78.071 186.18 L 76.926 193.148 L 75.782 188.503 L 56.314 189.664 L 56.314 186.18 Z" fill="#4C0D12" style="" transform="matrix(1, 0, 0, 1, 7.105427357601002e-15, -7.105427357601002e-15)"/>
  <path d="M 216.627 247.728 L 216.627 251.212 C 220.456 251.298 223.272 251.287 226.933 250.051 L 225.787 253.535 C 222.001 254.663 220.336 254.797 216.557 253.389 L 213.191 252.373 C 210.462 253.817 210.462 253.817 208.61 255.856 C 209.503 250.604 211.109 247.728 216.627 247.728" fill="#EBC2AB" style="" transform="matrix(1, 0, 0, 1, 7.105427357601002e-15, -7.105427357601002e-15)"/>
  <path d="M 419.309 229.148 L 418.163 243.083 L 411.292 241.921 L 412.938 239.888 C 414.669 237.361 415.344 235.619 415.871 232.629 L 412.436 231.468 C 415.871 229.145 415.871 229.145 419.309 229.145" fill="#440F1B" style="" transform="matrix(1, 0, 0, 1, 7.105427357601002e-15, -7.105427357601002e-15)"/>
  <path d="M 388.39 216.373 L 389.536 216.373 L 389.747 218.831 L 390.038 222.034 L 390.319 225.218 C 390.531 227.999 390.531 227.999 391.826 230.309 C 394.487 230.784 397.157 231.171 399.84 231.469 L 399.84 232.631 C 398.196 232.692 396.551 232.741 394.901 232.777 L 392.125 232.86 C 389.536 232.631 389.536 232.631 386.099 230.309 L 388.39 216.373 Z" fill="#C92B33" style="" transform="matrix(1, 0, 0, 1, 7.105427357601002e-15, -7.105427357601002e-15)"/>
  <path d="M 105.554 215.212 C 107.431 219.026 106.147 222.674 105.554 226.825 L 107.844 226.825 L 108.988 223.341 L 109.92 226.68 C 110.992 230.602 110.992 230.602 114.713 232.631 C 110.85 232.849 110.85 232.849 106.698 232.631 C 104.109 228.691 104.126 227.229 104.193 222.615 L 104.214 219.158 C 104.407 216.373 104.407 216.373 105.554 215.212" fill="#E13840" style="" transform="matrix(1, 0, 0, 1, 7.105427357601002e-15, -7.105427357601002e-15)"/>
  <path d="M 135.325 231.469 C 137.903 231.107 137.903 231.107 141.05 231.469 C 143.486 234.302 143.486 234.302 145.63 237.276 L 149.065 238.437 L 147.921 243.083 L 141.05 237.276 L 138.761 239.599 L 138.333 237.35 L 137.617 234.953 L 135.325 233.792 L 135.325 231.469 Z" fill="#C5152B" style="" transform="matrix(1, 0, 0, 1, 7.105427357601002e-15, -7.105427357601002e-15)"/>
  <path d="M 86.086 188.503 L 87.23 188.503 C 86.37 197.07 85.131 205.548 83.797 214.051 L 82.651 214.051 C 82.396 205.517 82.675 197.913 84.94 189.664 L 86.086 188.503 Z" fill="#F7BAB7" style="" transform="matrix(1, 0, 0, 1, 7.105427357601002e-15, -7.105427357601002e-15)"/>
  <path d="M 449.081 218.696 L 451.371 218.696 L 450.439 222.254 C 450.145 228.491 452.076 230.26 455.95 234.953 C 450.509 234.082 450.509 234.082 447.935 231.469 C 447.67 228.745 447.67 228.745 447.721 225.592 L 447.74 222.43 C 447.935 219.857 447.935 219.857 449.081 218.696" fill="#C3172A" style="" transform="matrix(1, 0, 0, 1, 7.105427357601002e-15, -7.105427357601002e-15)"/>
  <path d="M 372.359 191.987 L 386.099 191.987 C 383.667 195.689 381.903 196.924 378.084 198.955 L 375.794 198.955 L 372.359 191.987 Z" fill="#D3CFC3" style="" transform="matrix(1, 0, 0, 1, 7.105427357601002e-15, -7.105427357601002e-15)"/>
  <path d="M 370.068 239.599 L 370.068 244.244 C 365.701 245.948 362.865 244.747 358.619 243.083 L 358.619 240.76 C 362.551 240.034 366.05 239.599 370.068 239.599" fill="#E72135" style="" transform="matrix(1, 0, 0, 1, 7.105427357601002e-15, -7.105427357601002e-15)"/>
  <path d="M 198.806 234.808 C 202.885 234.953 202.885 234.953 205.175 236.115 L 204.031 239.599 L 194.871 239.599 L 193.723 236.115 C 194.871 234.953 194.871 234.953 198.806 234.808" fill="#EBDCD0" style="" transform="matrix(1, 0, 0, 1, 7.105427357601002e-15, -7.105427357601002e-15)"/>
  <path d="M 185.709 195.471 L 190.29 196.632 L 188 196.632 L 188 202.439 L 192.579 202.439 L 192.579 210.567 L 190.29 210.567 L 191.434 203.6 L 184.565 203.6 L 185.709 195.471 Z" fill="#D2958D" style="" transform="matrix(1, 0, 0, 1, 7.105427357601002e-15, -7.105427357601002e-15)"/>
  <path d="M 418.163 205.923 L 419.309 205.923 L 419.309 211.728 L 416.873 212.092 C 412.011 213.27 407.971 215.093 404.421 218.696 L 399.84 216.373 L 402.06 215.576 C 406.098 213.819 409.802 211.669 413.597 209.431 C 415.871 208.244 415.871 208.244 418.163 208.244 L 418.163 205.923 Z" fill="#401921" style="" transform="matrix(1, 0, 0, 1, 7.105427357601002e-15, -7.105427357601002e-15)"/>
  <path d="M 236.092 258.179 L 239.529 259.34 L 237.237 260.501 L 237.237 263.985 L 217.771 265.147 L 217.771 263.985 L 220.908 263.305 L 224.999 262.389 L 229.067 261.492 C 232.805 260.669 232.805 260.669 236.092 258.179" fill="#2E0B13" style="" transform="matrix(1, 0, 0, 1, 7.105427357601002e-15, -7.105427357601002e-15)"/>
  <path d="M 436.484 202.439 L 437.629 202.439 C 437.794 211.066 437.794 211.066 436.484 215.212 L 431.904 215.212 C 432.228 213.516 432.564 211.823 432.904 210.132 L 433.47 207.275 C 434.194 204.761 434.194 204.761 436.484 202.439" fill="#DC242F" style="" transform="matrix(1, 0, 0, 1, 7.105427357601002e-15, -7.105427357601002e-15)"/>
  <path d="M 285.333 183.857 L 294.493 183.857 C 293.061 188.218 291.554 188.782 287.622 190.825 L 285.333 190.825 L 285.333 183.857 Z" fill="#E81729" style="" transform="matrix(1, 0, 0, 1, 7.105427357601002e-15, -7.105427357601002e-15)"/>
  <path d="M 90.667 241.921 L 97.538 247.728 L 96.392 250.051 C 92.885 250.777 92.885 250.777 89.522 251.212 L 90.667 241.921 Z" fill="#CDC4B8" style="" transform="matrix(1, 0, 0, 1, 7.105427357601002e-15, -7.105427357601002e-15)"/>
  <path d="M 179.985 224.503 L 181.129 224.503 C 181.831 231.498 181.304 235.88 177.101 241.559 C 175.075 243.376 173.462 243.786 170.823 244.244 L 172.244 242.578 C 176.911 236.772 179.002 231.918 179.985 224.503" fill="#3E0710" style="" transform="matrix(1, 0, 0, 1, 7.105427357601002e-15, -7.105427357601002e-15)"/>
  <path d="M 326.555 196.632 L 326.555 200.116 L 311.668 201.277 C 317.484 196.852 319.4 196.497 326.555 196.632" fill="#D1B99B" style="" transform="matrix(1, 0, 0, 1, 7.105427357601002e-15, -7.105427357601002e-15)"/>
  <path d="M 319.685 183.857 L 321.974 183.857 L 321.974 188.503 L 332.28 189.664 C 328.215 190.695 325.247 190.948 321.114 190.899 L 317.7 190.868 L 315.105 190.825 C 316.566 188.459 318.092 186.136 319.685 183.857" fill="#B0ADA6" style="" transform="matrix(1, 0, 0, 1, 7.105427357601002e-15, -7.105427357601002e-15)"/>
</svg>